<svg xmlns="http://www.w3.org/2000/svg" width="27" height="28" fill="none" viewBox="0 0 27 28"><path fill="url(#paint0_linear)" fill-rule="evenodd" d="M7.79212 0.943533C9.20099 0.878675 9.6502 0.864262 13.239 0.864262C16.8279 0.864262 17.2771 0.879876 18.6848 0.943533C20.0924 1.00719 21.0533 1.23179 21.8941 1.55729C22.7745 1.88999 23.5732 2.41006 24.2338 3.08267C24.9064 3.74206 25.4253 4.53958 25.7568 5.42118C26.0835 6.26194 26.3069 7.22281 26.3717 8.62808C26.4366 10.0394 26.451 10.4886 26.451 14.0762C26.451 17.665 26.4354 18.1143 26.3717 19.5231C26.3081 20.9284 26.0835 21.8893 25.7568 22.73C25.4252 23.6117 24.9055 24.4106 24.2338 25.0709C23.5732 25.7435 22.7745 26.2624 21.8941 26.5939C21.0533 26.9206 20.0924 27.144 18.6872 27.2089C17.2771 27.2737 16.8279 27.2881 13.239 27.2881C9.6502 27.2881 9.20099 27.2725 7.79212 27.2089C6.38685 27.1452 5.42598 26.9206 4.58522 26.5939C3.70353 26.2624 2.90468 25.7427 2.2443 25.0709C1.57215 24.4111 1.052 23.6127 0.720126 22.7312C0.394632 21.8905 0.17123 20.9296 0.106371 19.5243C0.0415126 18.1131 0.0270996 17.6638 0.0270996 14.0762C0.0270996 10.4874 0.0427137 10.0382 0.106371 8.63048C0.170029 7.22281 0.394632 6.26194 0.720126 5.42118C1.05249 4.53968 1.57304 3.74124 2.2455 3.08147C2.90495 2.40946 3.70299 1.88932 4.58402 1.55729C5.42478 1.23179 6.38565 1.00839 7.79092 0.943533H7.79212ZM18.5779 3.32168C17.1846 3.25803 16.7666 3.24481 13.239 3.24481C9.71145 3.24481 9.29347 3.25803 7.90022 3.32168C6.61145 3.38054 5.91242 3.59553 5.4464 3.77689C4.83024 4.01711 4.38944 4.30177 3.92702 4.76419C3.48868 5.19063 3.15134 5.70978 2.93973 6.28356C2.75837 6.74958 2.54337 7.44861 2.48452 8.73738C2.42086 10.1306 2.40765 10.5486 2.40765 14.0762C2.40765 17.6038 2.42086 18.0218 2.48452 19.415C2.54337 20.7038 2.75837 21.4028 2.93973 21.8688C3.15112 22.4418 3.48863 22.9618 3.92702 23.3882C4.35341 23.8266 4.87348 24.1641 5.4464 24.3755C5.91242 24.5569 6.61145 24.7719 7.90022 24.8307C9.29347 24.8944 9.71025 24.9076 13.239 24.9076C16.7678 24.9076 17.1846 24.8944 18.5779 24.8307C19.8666 24.7719 20.5657 24.5569 21.0317 24.3755C21.6478 24.1353 22.0886 23.8506 22.5511 23.3882C22.9895 22.9618 23.327 22.4418 23.5384 21.8688C23.7197 21.4028 23.9347 20.7038 23.9936 19.415C24.0572 18.0218 24.0704 17.6038 24.0704 14.0762C24.0704 10.5486 24.0572 10.1306 23.9936 8.73738C23.9347 7.44861 23.7197 6.74958 23.5384 6.28356C23.2981 5.6674 23.0135 5.2266 22.5511 4.76419C22.1246 4.32588 21.6054 3.98854 21.0317 3.77689C20.5657 3.59553 19.8666 3.38054 18.5779 3.32168ZM11.5515 18.1491C12.494 18.5414 13.5434 18.5943 14.5205 18.2989C15.4977 18.0034 16.3419 17.3779 16.9091 16.5291C17.4763 15.6803 17.7312 14.661 17.6303 13.6451C17.5294 12.6293 17.0789 11.68 16.3559 10.9594C15.8949 10.4987 15.3376 10.146 14.724 9.92663C14.1104 9.70723 13.4558 9.62661 12.8072 9.69058C12.1587 9.75454 11.5325 9.9615 10.9736 10.2965C10.4146 10.6316 9.93695 11.0864 9.57489 11.6282C9.21284 12.17 8.97541 12.7854 8.87972 13.43C8.78403 14.0746 8.83244 14.7323 9.02148 15.356C9.21051 15.9796 9.53547 16.5536 9.97295 17.0365C10.4104 17.5195 10.9496 17.8995 11.5515 18.1491ZM8.4371 9.27426C9.0677 8.64366 9.81633 8.14344 10.6402 7.80217C11.4642 7.46089 12.3472 7.28523 13.239 7.28523C14.1308 7.28523 15.0139 7.46089 15.8378 7.80217C16.6618 8.14344 17.4104 8.64366 18.041 9.27426C18.6716 9.90486 19.1718 10.6535 19.5131 11.4774C19.8544 12.3013 20.03 13.1844 20.03 14.0762C20.03 14.968 19.8544 15.8511 19.5131 16.675C19.1718 17.4989 18.6716 18.2475 18.041 18.8781C16.7674 20.1517 15.0401 20.8672 13.239 20.8672C11.438 20.8672 9.71065 20.1517 8.4371 18.8781C7.16355 17.6046 6.44807 15.8773 6.44807 14.0762C6.44807 12.2751 7.16355 10.5478 8.4371 9.27426ZM21.5361 8.29658C21.6924 8.14917 21.8175 7.9719 21.904 7.77528C21.9906 7.57865 22.0368 7.36666 22.0399 7.15186C22.043 6.93706 22.003 6.72381 21.9223 6.52475C21.8415 6.32569 21.7216 6.14485 21.5697 5.99294C21.4178 5.84104 21.237 5.72116 21.0379 5.6404C20.8389 5.55964 20.6256 5.51964 20.4108 5.52277C20.196 5.5259 19.984 5.5721 19.7874 5.65863C19.5908 5.74516 19.4135 5.87026 19.2661 6.02653C18.9794 6.33044 18.8224 6.73411 18.8285 7.15186C18.8346 7.56961 19.0033 7.96854 19.2987 8.26396C19.5941 8.55938 19.9931 8.72804 20.4108 8.73413C20.8286 8.74022 21.2322 8.58327 21.5361 8.29658Z" clip-rule="evenodd"/><defs><linearGradient id="paint0_linear" x1=".027" x2="26.451" y1="14.076" y2="14.076" gradientUnits="userSpaceOnUse"><stop stop-color="#9A18F9"/><stop offset="1" stop-color="#4F56E9"/></linearGradient></defs></svg>