<svg xmlns="http://www.w3.org/2000/svg" width="27" height="28" fill="none" viewBox="0 0 27 28"><path fill="url(#paint0_linear)" fill-rule="evenodd" d="M0.1875 3.07186C0.1875 2.48637 0.420086 1.92486 0.83409 1.51085C1.24809 1.09685 1.8096 0.864265 2.3951 0.864265H24.4014C24.6915 0.863791 24.9789 0.920551 25.2471 1.0313C25.5153 1.14204 25.759 1.30459 25.9643 1.50965C26.1696 1.71471 26.3324 1.95824 26.4434 2.22631C26.5545 2.49437 26.6115 2.78171 26.6114 3.07186V25.0781C26.6117 25.3684 26.5548 25.6558 26.4439 25.924C26.333 26.1922 26.1704 26.4359 25.9652 26.6411C25.7601 26.8464 25.5165 27.0092 25.2483 27.1202C24.9802 27.2312 24.6928 27.2883 24.4026 27.2881H2.3951C2.10509 27.2881 1.81792 27.231 1.55001 27.12C1.28209 27.009 1.03868 26.8462 0.833665 26.6411C0.628655 26.436 0.46607 26.1925 0.355199 25.9245C0.244327 25.6565 0.187343 25.3694 0.1875 25.0793V3.07186ZM10.6466 10.939H14.2246V12.7358C14.7411 11.7029 16.0622 10.7732 18.0476 10.7732C21.8539 10.7732 22.7559 12.8307 22.7559 16.6057V23.5984H18.904V17.4657C18.904 15.3157 18.3875 14.1026 17.076 14.1026C15.2563 14.1026 14.4996 15.4106 14.4996 17.4657V23.5984H10.6466V10.939ZM4.04058 23.4339H7.89366V10.7732H4.04058V23.4327V23.4339ZM8.44496 6.64389C8.45223 6.97379 8.39352 7.30183 8.27229 7.60874C8.15107 7.91565 7.96976 8.19525 7.739 8.43114C7.50825 8.66703 7.23271 8.85445 6.92854 8.98241C6.62437 9.11036 6.29771 9.17628 5.96772 9.17628C5.63774 9.17628 5.31108 9.11036 5.00691 8.98241C4.70274 8.85445 4.4272 8.66703 4.19645 8.43114C3.96569 8.19525 3.78438 7.91565 3.66315 7.60874C3.54192 7.30183 3.48322 6.97379 3.49049 6.64389C3.50475 5.99633 3.772 5.38009 4.23502 4.92716C4.69804 4.47422 5.32001 4.2206 5.96772 4.2206C6.61544 4.2206 7.23741 4.47422 7.70043 4.92716C8.16345 5.38009 8.4307 5.99633 8.44496 6.64389Z" clip-rule="evenodd"/><defs><linearGradient id="paint0_linear" x1=".188" x2="26.611" y1="14.076" y2="14.076" gradientUnits="userSpaceOnUse"><stop stop-color="#9A18F9"/><stop offset="1" stop-color="#4F56E9"/></linearGradient></defs></svg>