<svg width="385" height="209" viewBox="0 0 385 209" fill="none" xmlns="http://www.w3.org/2000/svg">
<path d="M61.7587 65.8454C61.7587 52.4986 72.5784 41.6789 85.9252 41.6789H243.007C271.554 41.6789 294.696 64.821 294.696 93.3682V163.854C294.696 177.2 283.877 188.02 270.53 188.02H113.448C84.9008 188.02 61.7587 164.878 61.7587 136.331V65.8454Z" stroke="url(#paint0_linear)" stroke-width="4.02774"/>
<rect x="350.413" y="116.864" width="250.391" height="49.0041" rx="24.5021" transform="rotate(-180 350.413 116.864)" fill="url(#paint1_linear)"/>
<rect x="118.818" y="126.934" width="125.531" height="32.8932" rx="16.4466" fill="url(#paint2_linear)"/>
<circle cx="66.1221" cy="47.3855" r="33.9001" fill="url(#paint3_linear)"/>
<path d="M137.195 101.901C137.01 101.901 136.881 101.818 136.807 101.652L133.342 93.9734C133.305 93.8994 133.25 93.8625 133.176 93.8625H130.598C130.505 93.8625 130.459 93.9087 130.459 94.0011V101.569C130.459 101.661 130.422 101.744 130.348 101.818C130.293 101.874 130.219 101.901 130.127 101.901H126.883C126.791 101.901 126.708 101.874 126.634 101.818C126.578 101.744 126.551 101.661 126.551 101.569V82.8298C126.551 82.7374 126.578 82.6635 126.634 82.608C126.708 82.5341 126.791 82.4972 126.883 82.4972H134.811C135.994 82.4972 137.029 82.7374 137.916 83.2179C138.822 83.6984 139.515 84.3821 139.995 85.2692C140.494 86.1562 140.743 87.1819 140.743 88.3461C140.743 89.6028 140.429 90.6839 139.801 91.5894C139.173 92.4765 138.295 93.1048 137.168 93.4744C137.075 93.5114 137.047 93.576 137.084 93.6684L140.854 101.513C140.891 101.587 140.91 101.643 140.91 101.68C140.91 101.827 140.808 101.901 140.605 101.901H137.195ZM130.598 85.8513C130.505 85.8513 130.459 85.8975 130.459 85.9899V90.7301C130.459 90.8225 130.505 90.8687 130.598 90.8687H134.229C135.005 90.8687 135.634 90.6377 136.114 90.1757C136.613 89.7137 136.863 89.1131 136.863 88.3739C136.863 87.6346 136.613 87.034 136.114 86.572C135.634 86.0916 135.005 85.8513 134.229 85.8513H130.598ZM156.052 91.4785C156.385 92.421 156.551 93.5298 156.551 94.805C156.551 96.0801 156.376 97.2351 156.025 98.27C155.599 99.4527 154.925 100.395 154.001 101.097C153.095 101.781 151.968 102.123 150.619 102.123C149.288 102.123 148.254 101.661 147.514 100.737C147.477 100.682 147.44 100.663 147.403 100.682C147.367 100.7 147.348 100.737 147.348 100.793V106.725C147.348 106.817 147.311 106.891 147.237 106.946C147.182 107.02 147.108 107.057 147.015 107.057H143.772C143.68 107.057 143.597 107.02 143.523 106.946C143.467 106.891 143.439 106.817 143.439 106.725V87.9858C143.439 87.8934 143.467 87.8194 143.523 87.764C143.597 87.6901 143.68 87.6531 143.772 87.6531H147.015C147.108 87.6531 147.182 87.6901 147.237 87.764C147.311 87.8194 147.348 87.8934 147.348 87.9858V88.9005C147.348 88.956 147.367 88.9929 147.403 89.0114C147.44 89.0114 147.477 88.9929 147.514 88.956C148.291 87.9396 149.362 87.4314 150.73 87.4314C152.005 87.4314 153.105 87.7917 154.029 88.5125C154.971 89.2147 155.646 90.2034 156.052 91.4785ZM151.811 97.6879C152.273 96.9672 152.504 95.9877 152.504 94.7495C152.504 93.5853 152.31 92.6613 151.922 91.9775C151.497 91.1828 150.813 90.7855 149.871 90.7855C149.021 90.7855 148.383 91.1828 147.958 91.9775C147.57 92.6428 147.376 93.576 147.376 94.7772C147.376 96.0154 147.579 96.9764 147.986 97.6602C148.411 98.3994 149.039 98.769 149.871 98.769C150.702 98.769 151.349 98.4086 151.811 97.6879ZM170.865 92.6428C171.234 93.4929 171.419 94.4723 171.419 95.5811C171.419 96.5791 171.253 97.5031 170.92 98.3532C170.477 99.5359 169.728 100.46 168.675 101.125C167.64 101.79 166.411 102.123 164.988 102.123C163.584 102.123 162.345 101.772 161.274 101.07C160.22 100.368 159.463 99.4158 159.001 98.2146C158.742 97.4938 158.594 96.7177 158.557 95.8861C158.557 95.6643 158.668 95.5534 158.89 95.5534H162.161C162.382 95.5534 162.493 95.6643 162.493 95.8861C162.567 96.4959 162.669 96.9487 162.798 97.2444C162.965 97.7248 163.233 98.1037 163.602 98.3809C163.99 98.6396 164.443 98.769 164.96 98.769C165.995 98.769 166.707 98.3162 167.095 97.4107C167.354 96.8563 167.483 96.2095 167.483 95.4703C167.483 94.6017 167.344 93.8902 167.067 93.3358C166.642 92.4672 165.931 92.0329 164.933 92.0329C164.729 92.0329 164.517 92.0976 164.295 92.227C164.073 92.3379 163.805 92.5042 163.491 92.7259C163.417 92.7814 163.343 92.8091 163.269 92.8091C163.159 92.8091 163.075 92.7537 163.02 92.6428L161.384 90.342C161.348 90.2866 161.329 90.2219 161.329 90.148C161.329 90.0371 161.366 89.9447 161.44 89.8708L165.847 86.0176C165.884 85.9807 165.894 85.9437 165.875 85.9067C165.875 85.8698 165.847 85.8513 165.792 85.8513H159.278C159.185 85.8513 159.102 85.8236 159.028 85.7681C158.973 85.6942 158.945 85.6111 158.945 85.5187V82.8298C158.945 82.7374 158.973 82.6635 159.028 82.608C159.102 82.5341 159.185 82.4972 159.278 82.4972H170.837C170.93 82.4972 171.003 82.5341 171.059 82.608C171.133 82.6635 171.17 82.7374 171.17 82.8298V85.879C171.17 86.0269 171.105 86.1655 170.976 86.2948L167.344 89.6213C167.307 89.6582 167.289 89.6952 167.289 89.7322C167.307 89.7691 167.354 89.7876 167.428 89.7876C169.035 90.1018 170.181 91.0535 170.865 92.6428ZM176.216 102.012C175.588 102.012 175.061 101.809 174.636 101.402C174.229 100.977 174.026 100.451 174.026 99.8223C174.026 99.1755 174.229 98.6489 174.636 98.2423C175.042 97.8357 175.569 97.6324 176.216 97.6324C176.863 97.6324 177.389 97.8357 177.796 98.2423C178.203 98.6489 178.406 99.1755 178.406 99.8223C178.406 100.451 178.193 100.977 177.768 101.402C177.362 101.809 176.844 102.012 176.216 102.012ZM187.225 102.206C185.193 102.206 183.585 101.643 182.402 100.515C181.219 99.3696 180.628 97.8172 180.628 95.8583V88.5402C180.628 86.6182 181.219 85.0936 182.402 83.9663C183.585 82.839 185.193 82.2754 187.225 82.2754C189.258 82.2754 190.866 82.839 192.049 83.9663C193.25 85.0936 193.851 86.6182 193.851 88.5402V95.8583C193.851 97.8172 193.25 99.3696 192.049 100.515C190.866 101.643 189.258 102.206 187.225 102.206ZM187.225 98.8521C188.057 98.8521 188.713 98.6027 189.194 98.1037C189.693 97.5862 189.942 96.9025 189.942 96.0524V88.4293C189.942 87.5792 189.693 86.9047 189.194 86.4057C188.713 85.8883 188.057 85.6295 187.225 85.6295C186.412 85.6295 185.756 85.8883 185.257 86.4057C184.777 86.9047 184.537 87.5792 184.537 88.4293V96.0524C184.537 96.9025 184.777 97.5862 185.257 98.1037C185.756 98.6027 186.412 98.8521 187.225 98.8521ZM203.035 102.206C201.002 102.206 199.394 101.643 198.211 100.515C197.029 99.3696 196.437 97.8172 196.437 95.8583V88.5402C196.437 86.6182 197.029 85.0936 198.211 83.9663C199.394 82.839 201.002 82.2754 203.035 82.2754C205.068 82.2754 206.675 82.839 207.858 83.9663C209.059 85.0936 209.66 86.6182 209.66 88.5402V95.8583C209.66 97.8172 209.059 99.3696 207.858 100.515C206.675 101.643 205.068 102.206 203.035 102.206ZM203.035 98.8521C203.866 98.8521 204.522 98.6027 205.003 98.1037C205.502 97.5862 205.751 96.9025 205.751 96.0524V88.4293C205.751 87.5792 205.502 86.9047 205.003 86.4057C204.522 85.8883 203.866 85.6295 203.035 85.6295C202.222 85.6295 201.566 85.8883 201.067 86.4057C200.586 86.9047 200.346 87.5792 200.346 88.4293V96.0524C200.346 96.9025 200.586 97.5862 201.067 98.1037C201.566 98.6027 202.222 98.8521 203.035 98.8521ZM218.844 102.206C216.811 102.206 215.203 101.643 214.021 100.515C212.838 99.3696 212.247 97.8172 212.247 95.8583V88.5402C212.247 86.6182 212.838 85.0936 214.021 83.9663C215.203 82.839 216.811 82.2754 218.844 82.2754C220.877 82.2754 222.485 82.839 223.667 83.9663C224.868 85.0936 225.469 86.6182 225.469 88.5402V95.8583C225.469 97.8172 224.868 99.3696 223.667 100.515C222.485 101.643 220.877 102.206 218.844 102.206ZM218.844 98.8521C219.676 98.8521 220.332 98.6027 220.812 98.1037C221.311 97.5862 221.561 96.9025 221.561 96.0524V88.4293C221.561 87.5792 221.311 86.9047 220.812 86.4057C220.332 85.8883 219.676 85.6295 218.844 85.6295C218.031 85.6295 217.375 85.8883 216.876 86.4057C216.395 86.9047 216.155 87.5792 216.155 88.4293V96.0524C216.155 96.9025 216.395 97.5862 216.876 98.1037C217.375 98.6027 218.031 98.8521 218.844 98.8521ZM230.384 102.012C229.756 102.012 229.229 101.809 228.804 101.402C228.398 100.977 228.194 100.451 228.194 99.8223C228.194 99.1755 228.398 98.6489 228.804 98.2423C229.211 97.8357 229.737 97.6324 230.384 97.6324C231.031 97.6324 231.558 97.8357 231.964 98.2423C232.371 98.6489 232.574 99.1755 232.574 99.8223C232.574 100.451 232.362 100.977 231.937 101.402C231.53 101.809 231.013 102.012 230.384 102.012ZM241.394 102.206C239.361 102.206 237.753 101.643 236.57 100.515C235.388 99.3696 234.796 97.8172 234.796 95.8583V88.5402C234.796 86.6182 235.388 85.0936 236.57 83.9663C237.753 82.839 239.361 82.2754 241.394 82.2754C243.427 82.2754 245.034 82.839 246.217 83.9663C247.418 85.0936 248.019 86.6182 248.019 88.5402V95.8583C248.019 97.8172 247.418 99.3696 246.217 100.515C245.034 101.643 243.427 102.206 241.394 102.206ZM241.394 98.8521C242.225 98.8521 242.881 98.6027 243.362 98.1037C243.861 97.5862 244.11 96.9025 244.11 96.0524V88.4293C244.11 87.5792 243.861 86.9047 243.362 86.4057C242.881 85.8883 242.225 85.6295 241.394 85.6295C240.581 85.6295 239.925 85.8883 239.426 86.4057C238.945 86.9047 238.705 87.5792 238.705 88.4293V96.0524C238.705 96.9025 238.945 97.5862 239.426 98.1037C239.925 98.6027 240.581 98.8521 241.394 98.8521ZM257.203 102.206C255.17 102.206 253.562 101.643 252.38 100.515C251.197 99.3696 250.606 97.8172 250.606 95.8583V88.5402C250.606 86.6182 251.197 85.0936 252.38 83.9663C253.562 82.839 255.17 82.2754 257.203 82.2754C259.236 82.2754 260.844 82.839 262.026 83.9663C263.228 85.0936 263.828 86.6182 263.828 88.5402V95.8583C263.828 97.8172 263.228 99.3696 262.026 100.515C260.844 101.643 259.236 102.206 257.203 102.206ZM257.203 98.8521C258.035 98.8521 258.691 98.6027 259.171 98.1037C259.67 97.5862 259.92 96.9025 259.92 96.0524V88.4293C259.92 87.5792 259.67 86.9047 259.171 86.4057C258.691 85.8883 258.035 85.6295 257.203 85.6295C256.39 85.6295 255.734 85.8883 255.235 86.4057C254.754 86.9047 254.514 87.5792 254.514 88.4293V96.0524C254.514 96.9025 254.754 97.5862 255.235 98.1037C255.734 98.6027 256.39 98.8521 257.203 98.8521ZM273.012 102.206C270.979 102.206 269.372 101.643 268.189 100.515C267.006 99.3696 266.415 97.8172 266.415 95.8583V88.5402C266.415 86.6182 267.006 85.0936 268.189 83.9663C269.372 82.839 270.979 82.2754 273.012 82.2754C275.045 82.2754 276.653 82.839 277.836 83.9663C279.037 85.0936 279.637 86.6182 279.637 88.5402V95.8583C279.637 97.8172 279.037 99.3696 277.836 100.515C276.653 101.643 275.045 102.206 273.012 102.206ZM273.012 98.8521C273.844 98.8521 274.5 98.6027 274.98 98.1037C275.479 97.5862 275.729 96.9025 275.729 96.0524V88.4293C275.729 87.5792 275.479 86.9047 274.98 86.4057C274.5 85.8883 273.844 85.6295 273.012 85.6295C272.199 85.6295 271.543 85.8883 271.044 86.4057C270.564 86.9047 270.323 87.5792 270.323 88.4293V96.0524C270.323 96.9025 270.564 97.5862 271.044 98.1037C271.543 98.6027 272.199 98.8521 273.012 98.8521ZM282.39 104.618C282.169 104.618 282.067 104.498 282.085 104.258L283 97.8265C283.019 97.6232 283.139 97.5216 283.361 97.5216H286.188C286.428 97.5216 286.521 97.6417 286.465 97.8819L284.747 104.341C284.691 104.526 284.562 104.618 284.358 104.618H282.39ZM295.427 102.206C293.394 102.206 291.786 101.643 290.603 100.515C289.421 99.3696 288.829 97.8172 288.829 95.8583V88.5402C288.829 86.6182 289.421 85.0936 290.603 83.9663C291.786 82.839 293.394 82.2754 295.427 82.2754C297.46 82.2754 299.067 82.839 300.25 83.9663C301.451 85.0936 302.052 86.6182 302.052 88.5402V95.8583C302.052 97.8172 301.451 99.3696 300.25 100.515C299.067 101.643 297.46 102.206 295.427 102.206ZM295.427 98.8521C296.258 98.8521 296.914 98.6027 297.395 98.1037C297.894 97.5862 298.143 96.9025 298.143 96.0524V88.4293C298.143 87.5792 297.894 86.9047 297.395 86.4057C296.914 85.8883 296.258 85.6295 295.427 85.6295C294.614 85.6295 293.958 85.8883 293.459 86.4057C292.978 86.9047 292.738 87.5792 292.738 88.4293V96.0524C292.738 96.9025 292.978 97.5862 293.459 98.1037C293.958 98.6027 294.614 98.8521 295.427 98.8521ZM311.236 102.206C309.203 102.206 307.595 101.643 306.413 100.515C305.23 99.3696 304.639 97.8172 304.639 95.8583V88.5402C304.639 86.6182 305.23 85.0936 306.413 83.9663C307.595 82.839 309.203 82.2754 311.236 82.2754C313.269 82.2754 314.877 82.839 316.059 83.9663C317.26 85.0936 317.861 86.6182 317.861 88.5402V95.8583C317.861 97.8172 317.26 99.3696 316.059 100.515C314.877 101.643 313.269 102.206 311.236 102.206ZM311.236 98.8521C312.068 98.8521 312.724 98.6027 313.204 98.1037C313.703 97.5862 313.953 96.9025 313.953 96.0524V88.4293C313.953 87.5792 313.703 86.9047 313.204 86.4057C312.724 85.8883 312.068 85.6295 311.236 85.6295C310.423 85.6295 309.767 85.8883 309.268 86.4057C308.787 86.9047 308.547 87.5792 308.547 88.4293V96.0524C308.547 96.9025 308.787 97.5862 309.268 98.1037C309.767 98.6027 310.423 98.8521 311.236 98.8521Z" fill="white"/>
<path d="M143.071 138.782C143.071 138.835 143.049 138.884 143.006 138.927C142.974 138.959 142.931 138.975 142.877 138.975H137.593C137.539 138.975 137.512 139.002 137.512 139.056V141.553C137.512 141.606 137.539 141.633 137.593 141.633H141.057C141.11 141.633 141.153 141.655 141.186 141.698C141.229 141.73 141.25 141.773 141.25 141.827V143.389C141.25 143.443 141.229 143.491 141.186 143.534C141.153 143.567 141.11 143.583 141.057 143.583H137.593C137.539 143.583 137.512 143.61 137.512 143.663V146.273C137.512 146.327 137.539 146.354 137.593 146.354H142.877C142.931 146.354 142.974 146.375 143.006 146.418C143.049 146.45 143.071 146.493 143.071 146.547V148.11C143.071 148.164 143.049 148.212 143.006 148.255C142.974 148.287 142.931 148.303 142.877 148.303H135.434C135.38 148.303 135.332 148.287 135.289 148.255C135.257 148.212 135.241 148.164 135.241 148.11V137.219C135.241 137.165 135.257 137.122 135.289 137.09C135.332 137.047 135.38 137.026 135.434 137.026H142.877C142.931 137.026 142.974 137.047 143.006 137.09C143.049 137.122 143.071 137.165 143.071 137.219V138.782ZM144.327 144.517C144.273 144.517 144.225 144.501 144.182 144.469C144.15 144.426 144.134 144.378 144.134 144.324V142.761C144.134 142.707 144.15 142.664 144.182 142.632C144.225 142.589 144.273 142.568 144.327 142.568H149.595C149.649 142.568 149.692 142.589 149.724 142.632C149.767 142.664 149.789 142.707 149.789 142.761V144.324C149.789 144.378 149.767 144.426 149.724 144.469C149.692 144.501 149.649 144.517 149.595 144.517H144.327ZM155.205 148.432C154.367 148.432 153.631 148.271 152.998 147.949C152.364 147.616 151.875 147.154 151.532 146.563C151.188 145.973 151.016 145.29 151.016 144.517V140.796C151.016 140.022 151.188 139.34 151.532 138.749C151.875 138.159 152.364 137.702 152.998 137.38C153.631 137.058 154.367 136.897 155.205 136.897C156.032 136.897 156.757 137.052 157.38 137.364C158.013 137.665 158.502 138.1 158.846 138.669C159.2 139.227 159.378 139.877 159.378 140.618C159.378 140.715 159.313 140.774 159.184 140.796L157.299 140.908H157.267C157.16 140.908 157.106 140.849 157.106 140.731C157.106 140.162 156.929 139.705 156.574 139.362C156.231 139.018 155.774 138.846 155.205 138.846C154.625 138.846 154.158 139.018 153.803 139.362C153.459 139.705 153.288 140.162 153.288 140.731V144.614C153.288 145.172 153.459 145.623 153.803 145.967C154.158 146.311 154.625 146.483 155.205 146.483C155.774 146.483 156.231 146.311 156.574 145.967C156.929 145.623 157.106 145.172 157.106 144.614C157.106 144.496 157.17 144.437 157.299 144.437L159.184 144.517C159.238 144.517 159.281 144.533 159.313 144.565C159.356 144.598 159.378 144.635 159.378 144.678C159.378 145.419 159.2 146.075 158.846 146.644C158.502 147.213 158.013 147.653 157.38 147.965C156.757 148.276 156.032 148.432 155.205 148.432ZM168.213 143.309C168.278 143.717 168.299 144.173 168.278 144.678C168.267 144.807 168.197 144.872 168.068 144.872H163.09C163.025 144.872 163.004 144.898 163.025 144.952C163.058 145.167 163.117 145.382 163.203 145.597C163.482 146.198 164.051 146.499 164.91 146.499C165.598 146.488 166.14 146.209 166.538 145.661C166.581 145.597 166.629 145.564 166.683 145.564C166.715 145.564 166.752 145.586 166.795 145.629L167.955 146.773C168.009 146.826 168.036 146.875 168.036 146.918C168.036 146.939 168.014 146.982 167.971 147.047C167.617 147.487 167.161 147.831 166.602 148.078C166.044 148.314 165.431 148.432 164.765 148.432C163.842 148.432 163.058 148.223 162.413 147.804C161.78 147.385 161.323 146.8 161.044 146.048C160.818 145.511 160.705 144.807 160.705 143.937C160.705 143.346 160.786 142.825 160.947 142.374C161.194 141.612 161.624 141.005 162.236 140.554C162.859 140.103 163.595 139.877 164.443 139.877C165.517 139.877 166.376 140.189 167.021 140.812C167.676 141.435 168.074 142.267 168.213 143.309ZM164.459 141.843C163.783 141.843 163.337 142.16 163.122 142.793C163.079 142.933 163.042 143.105 163.009 143.309C163.009 143.363 163.036 143.389 163.09 143.389H165.877C165.942 143.389 165.963 143.363 165.942 143.309C165.888 142.997 165.861 142.847 165.861 142.858C165.764 142.536 165.592 142.288 165.345 142.117C165.109 141.934 164.814 141.843 164.459 141.843ZM173.802 139.909C174.189 139.909 174.495 139.985 174.72 140.135C174.806 140.178 174.838 140.258 174.817 140.377L174.479 142.213C174.468 142.342 174.393 142.38 174.253 142.326C174.092 142.272 173.904 142.246 173.689 142.246C173.603 142.246 173.485 142.256 173.335 142.278C172.948 142.31 172.621 142.455 172.352 142.713C172.084 142.96 171.949 143.293 171.949 143.712V148.11C171.949 148.164 171.928 148.212 171.885 148.255C171.853 148.287 171.81 148.303 171.756 148.303H169.871C169.817 148.303 169.769 148.287 169.726 148.255C169.694 148.212 169.678 148.164 169.678 148.11V140.216C169.678 140.162 169.694 140.119 169.726 140.087C169.769 140.044 169.817 140.022 169.871 140.022H171.756C171.81 140.022 171.853 140.044 171.885 140.087C171.928 140.119 171.949 140.162 171.949 140.216V140.828C171.949 140.86 171.96 140.881 171.981 140.892C172.003 140.903 172.019 140.898 172.03 140.876C172.47 140.232 173.061 139.909 173.802 139.909ZM180.692 141.649C180.692 141.703 180.671 141.751 180.628 141.794C180.596 141.827 180.553 141.843 180.499 141.843H178.952C178.899 141.843 178.872 141.87 178.872 141.923V145.339C178.872 145.693 178.941 145.956 179.081 146.128C179.231 146.3 179.468 146.386 179.79 146.386H180.322C180.375 146.386 180.418 146.408 180.451 146.45C180.494 146.483 180.515 146.526 180.515 146.579V148.11C180.515 148.228 180.451 148.298 180.322 148.319C179.871 148.341 179.548 148.352 179.355 148.352C178.464 148.352 177.798 148.207 177.357 147.917C176.917 147.616 176.691 147.057 176.681 146.241V141.923C176.681 141.87 176.654 141.843 176.6 141.843H175.682C175.628 141.843 175.58 141.827 175.537 141.794C175.504 141.751 175.488 141.703 175.488 141.649V140.216C175.488 140.162 175.504 140.119 175.537 140.087C175.58 140.044 175.628 140.022 175.682 140.022H176.6C176.654 140.022 176.681 139.995 176.681 139.942V138.024C176.681 137.971 176.697 137.928 176.729 137.896C176.772 137.853 176.82 137.831 176.874 137.831H178.678C178.732 137.831 178.775 137.853 178.807 137.896C178.85 137.928 178.872 137.971 178.872 138.024V139.942C178.872 139.995 178.899 140.022 178.952 140.022H180.499C180.553 140.022 180.596 140.044 180.628 140.087C180.671 140.119 180.692 140.162 180.692 140.216V141.649ZM183.284 139.088C182.919 139.088 182.613 138.97 182.366 138.733C182.13 138.486 182.011 138.18 182.011 137.815C182.011 137.439 182.13 137.133 182.366 136.897C182.602 136.66 182.908 136.542 183.284 136.542C183.66 136.542 183.966 136.66 184.203 136.897C184.439 137.133 184.557 137.439 184.557 137.815C184.557 138.18 184.433 138.486 184.186 138.733C183.95 138.97 183.649 139.088 183.284 139.088ZM182.318 148.303C182.264 148.303 182.215 148.287 182.173 148.255C182.14 148.212 182.124 148.164 182.124 148.11V140.199C182.124 140.146 182.14 140.103 182.173 140.071C182.215 140.028 182.264 140.006 182.318 140.006H184.203C184.256 140.006 184.299 140.028 184.331 140.071C184.374 140.103 184.396 140.146 184.396 140.199V148.11C184.396 148.164 184.374 148.212 184.331 148.255C184.299 148.287 184.256 148.303 184.203 148.303H182.318ZM190.887 140.006C190.94 140.006 190.983 140.028 191.016 140.071C191.059 140.103 191.08 140.146 191.08 140.199V141.73C191.08 141.784 191.059 141.832 191.016 141.875C190.983 141.907 190.94 141.923 190.887 141.923H189.324C189.27 141.923 189.243 141.95 189.243 142.004V148.11C189.243 148.164 189.222 148.212 189.179 148.255C189.147 148.287 189.104 148.303 189.05 148.303H187.165C187.111 148.303 187.063 148.287 187.02 148.255C186.988 148.212 186.972 148.164 186.972 148.11V142.004C186.972 141.95 186.945 141.923 186.891 141.923H185.941C185.887 141.923 185.839 141.907 185.796 141.875C185.763 141.832 185.747 141.784 185.747 141.73V140.199C185.747 140.146 185.763 140.103 185.796 140.071C185.839 140.028 185.887 140.006 185.941 140.006H186.891C186.945 140.006 186.972 139.979 186.972 139.926V139.571C186.972 138.905 187.074 138.39 187.278 138.024C187.482 137.649 187.809 137.385 188.261 137.235C188.722 137.074 189.356 137.004 190.162 137.026H190.774C190.828 137.026 190.871 137.047 190.903 137.09C190.946 137.122 190.967 137.165 190.967 137.219V138.524C190.967 138.578 190.946 138.626 190.903 138.669C190.871 138.701 190.828 138.717 190.774 138.717H190.242C189.866 138.728 189.603 138.809 189.453 138.959C189.313 139.098 189.243 139.362 189.243 139.748V139.926C189.243 139.979 189.27 140.006 189.324 140.006H190.887ZM193.626 139.088C193.26 139.088 192.954 138.97 192.707 138.733C192.471 138.486 192.353 138.18 192.353 137.815C192.353 137.439 192.471 137.133 192.707 136.897C192.943 136.66 193.25 136.542 193.626 136.542C194.001 136.542 194.308 136.66 194.544 136.897C194.78 137.133 194.898 137.439 194.898 137.815C194.898 138.18 194.775 138.486 194.528 138.733C194.291 138.97 193.991 139.088 193.626 139.088ZM192.659 148.303C192.605 148.303 192.557 148.287 192.514 148.255C192.482 148.212 192.466 148.164 192.466 148.11V140.199C192.466 140.146 192.482 140.103 192.514 140.071C192.557 140.028 192.605 140.006 192.659 140.006H194.544C194.598 140.006 194.641 140.028 194.673 140.071C194.716 140.103 194.737 140.146 194.737 140.199V148.11C194.737 148.164 194.716 148.212 194.673 148.255C194.641 148.287 194.598 148.303 194.544 148.303H192.659ZM200.128 148.432C199.269 148.432 198.523 148.217 197.889 147.788C197.266 147.358 196.82 146.767 196.552 146.015C196.369 145.478 196.278 144.845 196.278 144.114C196.278 143.395 196.369 142.772 196.552 142.246C196.809 141.515 197.255 140.941 197.889 140.522C198.523 140.103 199.269 139.893 200.128 139.893C200.988 139.893 201.739 140.108 202.384 140.538C203.039 140.967 203.474 141.51 203.689 142.165C203.775 142.423 203.818 142.616 203.818 142.745V142.777C203.818 142.874 203.764 142.933 203.657 142.954L201.804 143.228H201.772C201.675 143.228 201.611 143.175 201.578 143.067L201.53 142.809C201.455 142.53 201.288 142.299 201.031 142.117C200.773 141.934 200.467 141.843 200.112 141.843C199.769 141.843 199.479 141.929 199.242 142.101C199.006 142.272 198.839 142.509 198.743 142.809C198.625 143.132 198.566 143.572 198.566 144.13C198.566 144.689 198.619 145.129 198.727 145.452C198.823 145.774 198.99 146.026 199.226 146.209C199.473 146.391 199.769 146.483 200.112 146.483C200.445 146.483 200.735 146.397 200.982 146.225C201.24 146.042 201.417 145.795 201.514 145.484C201.525 145.462 201.53 145.43 201.53 145.387C201.541 145.376 201.546 145.36 201.546 145.339C201.557 145.21 201.632 145.156 201.772 145.178L203.624 145.468C203.732 145.489 203.785 145.548 203.785 145.645C203.785 145.731 203.753 145.892 203.689 146.128C203.463 146.848 203.023 147.412 202.368 147.82C201.723 148.228 200.977 148.432 200.128 148.432ZM208.443 139.893C209.141 139.893 209.764 140.017 210.312 140.264C210.86 140.5 211.284 140.828 211.585 141.247C211.896 141.666 212.052 142.133 212.052 142.648V148.11C212.052 148.164 212.031 148.212 211.988 148.255C211.956 148.287 211.913 148.303 211.859 148.303H209.974C209.92 148.303 209.872 148.287 209.829 148.255C209.797 148.212 209.781 148.164 209.781 148.11V147.578C209.781 147.546 209.77 147.525 209.748 147.514C209.727 147.503 209.705 147.514 209.684 147.546C209.233 148.137 208.508 148.432 207.509 148.432C206.671 148.432 205.994 148.228 205.479 147.82C204.963 147.412 204.706 146.81 204.706 146.015C204.706 145.188 204.996 144.549 205.576 144.098C206.156 143.636 206.983 143.405 208.057 143.405H209.7C209.754 143.405 209.781 143.379 209.781 143.325V142.97C209.781 142.616 209.673 142.342 209.458 142.149C209.244 141.945 208.921 141.843 208.492 141.843C208.159 141.843 207.879 141.902 207.654 142.02C207.439 142.138 207.299 142.305 207.235 142.519C207.203 142.638 207.133 142.691 207.026 142.681L205.076 142.423C204.947 142.401 204.888 142.353 204.899 142.278C204.942 141.827 205.119 141.418 205.431 141.053C205.753 140.688 206.172 140.403 206.687 140.199C207.214 139.995 207.799 139.893 208.443 139.893ZM208.121 146.74C208.583 146.74 208.975 146.617 209.297 146.37C209.619 146.123 209.781 145.806 209.781 145.419V144.839C209.781 144.786 209.754 144.759 209.7 144.759H208.54C208.057 144.759 207.675 144.85 207.396 145.033C207.128 145.215 206.993 145.473 206.993 145.806C206.993 146.096 207.095 146.327 207.299 146.499C207.504 146.66 207.777 146.74 208.121 146.74ZM218.232 141.649C218.232 141.703 218.211 141.751 218.168 141.794C218.135 141.827 218.092 141.843 218.039 141.843H216.492C216.438 141.843 216.411 141.87 216.411 141.923V145.339C216.411 145.693 216.481 145.956 216.621 146.128C216.771 146.3 217.008 146.386 217.33 146.386H217.861C217.915 146.386 217.958 146.408 217.99 146.45C218.033 146.483 218.055 146.526 218.055 146.579V148.11C218.055 148.228 217.99 148.298 217.861 148.319C217.41 148.341 217.088 148.352 216.895 148.352C216.003 148.352 215.337 148.207 214.897 147.917C214.457 147.616 214.231 147.057 214.22 146.241V141.923C214.22 141.87 214.194 141.843 214.14 141.843H213.221C213.168 141.843 213.119 141.827 213.076 141.794C213.044 141.751 213.028 141.703 213.028 141.649V140.216C213.028 140.162 213.044 140.119 213.076 140.087C213.119 140.044 213.168 140.022 213.221 140.022H214.14C214.194 140.022 214.22 139.995 214.22 139.942V138.024C214.22 137.971 214.236 137.928 214.269 137.896C214.312 137.853 214.36 137.831 214.414 137.831H216.218C216.272 137.831 216.315 137.853 216.347 137.896C216.39 137.928 216.411 137.971 216.411 138.024V139.942C216.411 139.995 216.438 140.022 216.492 140.022H218.039C218.092 140.022 218.135 140.044 218.168 140.087C218.211 140.119 218.232 140.162 218.232 140.216V141.649ZM226.82 143.309C226.884 143.717 226.906 144.173 226.884 144.678C226.874 144.807 226.804 144.872 226.675 144.872H221.697C221.632 144.872 221.611 144.898 221.632 144.952C221.664 145.167 221.723 145.382 221.809 145.597C222.089 146.198 222.658 146.499 223.517 146.499C224.205 146.488 224.747 146.209 225.144 145.661C225.187 145.597 225.236 145.564 225.289 145.564C225.322 145.564 225.359 145.586 225.402 145.629L226.562 146.773C226.616 146.826 226.643 146.875 226.643 146.918C226.643 146.939 226.621 146.982 226.578 147.047C226.224 147.487 225.767 147.831 225.209 148.078C224.65 148.314 224.038 148.432 223.372 148.432C222.448 148.432 221.664 148.223 221.02 147.804C220.386 147.385 219.93 146.8 219.651 146.048C219.425 145.511 219.312 144.807 219.312 143.937C219.312 143.346 219.393 142.825 219.554 142.374C219.801 141.612 220.23 141.005 220.843 140.554C221.466 140.103 222.201 139.877 223.05 139.877C224.124 139.877 224.983 140.189 225.628 140.812C226.283 141.435 226.68 142.267 226.82 143.309ZM223.066 141.843C222.389 141.843 221.944 142.16 221.729 142.793C221.686 142.933 221.648 143.105 221.616 143.309C221.616 143.363 221.643 143.389 221.697 143.389H224.484C224.548 143.389 224.57 143.363 224.548 143.309C224.495 142.997 224.468 142.847 224.468 142.858C224.371 142.536 224.199 142.288 223.952 142.117C223.716 141.934 223.42 141.843 223.066 141.843Z" fill="white"/>
<path d="M52.4826 35.7044C52.6047 35.6311 52.7877 35.5945 53.0318 35.5945H57.4624C57.5844 35.5945 57.682 35.6433 57.7553 35.741C57.8529 35.8142 57.9017 35.9119 57.9017 36.0339V60.7862C57.9017 60.9082 57.8529 61.0181 57.7553 61.1157C57.682 61.189 57.5844 61.2256 57.4624 61.2256H53.1783C53.0563 61.2256 52.9464 61.189 52.8488 61.1157C52.7755 61.0181 52.7389 60.9082 52.7389 60.7862V40.7207C52.7389 40.6719 52.7145 40.6231 52.6657 40.5743C52.6169 40.5255 52.568 40.5133 52.5192 40.5377L48.8943 41.5263L48.7478 41.5629C48.5281 41.5629 48.4183 41.4286 48.4183 41.1601L48.3084 38.0112C48.3084 37.7671 48.4183 37.5962 48.6379 37.4986L52.4826 35.7044Z" fill="white"/>
<path d="M70.6171 42.2385C69.7775 42.2385 69.0445 42.1195 68.418 41.8814C67.7914 41.6433 67.3027 41.3112 66.9519 40.8852C66.6135 40.4591 66.4444 39.9767 66.4444 39.4379V39.2499C66.4444 39.1873 66.4632 39.1371 66.5008 39.0996C66.5509 39.0494 66.6073 39.0244 66.6699 39.0244H68.7563C68.8189 39.0244 68.8691 39.0494 68.9067 39.0996C68.9568 39.1371 68.9818 39.1873 68.9818 39.2499V39.2687C68.9818 39.5444 69.1322 39.7825 69.4329 39.983C69.7462 40.1709 70.1347 40.2649 70.5983 40.2649C71.0243 40.2649 71.3689 40.1835 71.6321 40.0206C71.8952 39.8451 72.0268 39.6321 72.0268 39.3815C72.0268 39.1559 71.914 38.9868 71.6885 38.874C71.4629 38.7612 71.0933 38.6422 70.5795 38.5169C69.9906 38.3665 69.5269 38.2224 69.1886 38.0846C68.3866 37.8089 67.7476 37.4706 67.2714 37.0696C66.7952 36.6686 66.5571 36.0922 66.5571 35.3403C66.5571 34.4131 66.9143 33.68 67.6285 33.1412C68.3553 32.5898 69.3139 32.3142 70.5043 32.3142C71.3063 32.3142 72.008 32.4457 72.6095 32.7089C73.211 32.9595 73.6746 33.3166 74.0004 33.7803C74.3387 34.2439 74.5079 34.7702 74.5079 35.3591C74.5079 35.4218 74.4828 35.4782 74.4327 35.5283C74.3951 35.5659 74.345 35.5847 74.2823 35.5847H72.2712C72.2085 35.5847 72.1521 35.5659 72.102 35.5283C72.0644 35.4782 72.0456 35.4218 72.0456 35.3591C72.0456 35.0835 71.9015 34.8516 71.6133 34.6637C71.3376 34.4757 70.968 34.3817 70.5043 34.3817C70.0908 34.3817 69.7525 34.4569 69.4893 34.6073C69.2262 34.7577 69.0946 34.9644 69.0946 35.2276C69.0946 35.4782 69.2199 35.6661 69.4705 35.7914C69.7337 35.9167 70.166 36.0483 70.7675 36.1862C70.9053 36.2238 71.0619 36.2676 71.2374 36.3177C71.4128 36.3553 71.6008 36.4054 71.8013 36.4681C72.6909 36.7312 73.3927 37.0696 73.9064 37.4831C74.4202 37.8966 74.6771 38.4981 74.6771 39.2875C74.6771 40.2148 74.3074 40.9416 73.5681 41.4679C72.8413 41.9816 71.8576 42.2385 70.6171 42.2385ZM81.7252 34.3441C81.7252 34.4068 81.7001 34.4632 81.65 34.5133C81.6124 34.5509 81.5623 34.5697 81.4996 34.5697H79.6952C79.6325 34.5697 79.6012 34.601 79.6012 34.6637V38.6484C79.6012 39.062 79.6826 39.369 79.8455 39.5695C80.021 39.77 80.2967 39.8702 80.6726 39.8702H81.2928C81.3555 39.8702 81.4056 39.8953 81.4432 39.9454C81.4933 39.983 81.5184 40.0331 81.5184 40.0957V41.8814C81.5184 42.0192 81.4432 42.1007 81.2928 42.1257C80.7666 42.1508 80.3906 42.1633 80.1651 42.1633C79.125 42.1633 78.3481 41.9942 77.8344 41.6558C77.3206 41.305 77.0575 40.6534 77.0449 39.701V34.6637C77.0449 34.601 77.0136 34.5697 76.9509 34.5697H75.8796C75.8169 34.5697 75.7605 34.5509 75.7104 34.5133C75.6728 34.4632 75.654 34.4068 75.654 34.3441V32.6713C75.654 32.6086 75.6728 32.5585 75.7104 32.5209C75.7605 32.4708 75.8169 32.4457 75.8796 32.4457H76.9509C77.0136 32.4457 77.0449 32.4144 77.0449 32.3518V30.115C77.0449 30.0524 77.0637 30.0022 77.1013 29.9646C77.1514 29.9145 77.2078 29.8895 77.2705 29.8895H79.3756C79.4383 29.8895 79.4884 29.9145 79.526 29.9646C79.5761 30.0022 79.6012 30.0524 79.6012 30.115V32.3518C79.6012 32.4144 79.6325 32.4457 79.6952 32.4457H81.4996C81.5623 32.4457 81.6124 32.4708 81.65 32.5209C81.7001 32.5585 81.7252 32.6086 81.7252 32.6713V34.3441Z" fill="white"/>
<line x1="65.115" y1="46.0428" x2="84.5824" y2="46.0428" stroke="white" stroke-width="0.67129"/>
<defs>
<linearGradient id="paint0_linear" x1="59.7449" y1="114.849" x2="296.71" y2="114.849" gradientUnits="userSpaceOnUse">
<stop stop-color="#F44E61"/>
<stop offset="1" stop-color="#FFCA6C"/>
</linearGradient>
<linearGradient id="paint1_linear" x1="252.405" y1="141.03" x2="600.804" y2="141.366" gradientUnits="userSpaceOnUse">
<stop stop-color="#85F0B1"/>
<stop offset="1" stop-color="#3FCBED"/>
</linearGradient>
<linearGradient id="paint2_linear" x1="118.818" y1="143.38" x2="300.784" y2="143.494" gradientUnits="userSpaceOnUse">
<stop offset="0.698958" stop-color="#FF7E45"/>
<stop offset="1" stop-color="#FFCA6C"/>
</linearGradient>
<linearGradient id="paint3_linear" x1="32.2219" y1="47.3855" x2="100.022" y2="47.3855" gradientUnits="userSpaceOnUse">
<stop stop-color="#9A18F9"/>
<stop offset="1" stop-color="#4F56E9"/>
</linearGradient>
</defs>
</svg>
